<svg height="480pt" viewBox="0 0 480 480.02396" width="480pt" xmlns="http://www.w3.org/2000/svg" xmlns:xlink="http://www.w3.org/1999/xlink"><linearGradient id="a"><stop offset="0" stop-color="#fff33b"/><stop offset=".014" stop-color="#fee72e"/><stop offset=".042" stop-color="#fed51b"/><stop offset=".07" stop-color="#fdca10"/><stop offset=".1" stop-color="#fdc70c"/><stop offset=".4" stop-color="#f3903f"/><stop offset=".8" stop-color="#ed683c"/><stop offset="1" stop-color="#e93e3a"/></linearGradient><linearGradient id="b" gradientUnits="userSpaceOnUse" x1="240.01198" x2="240.01198" xlink:href="#a" y1="-24.006666" y2="531.913334"/><linearGradient id="c" gradientUnits="userSpaceOnUse" x1="104.01198" x2="104.01198" xlink:href="#a" y1="-24.006666" y2="531.913334"/><path d="m453.691406 338.5625c12.652344-13.949219 13.808594-34.847656 2.773438-50.105469-11.035156-15.257812-31.246094-20.703125-48.453125-13.054687-10.203125-4.542969-21.859375-4.542969-32.0625 0-17.207031-7.636719-37.40625-2.183594-48.433594 13.070312-11.023437 15.257813-9.863281 36.148438 2.785156 50.089844-10.226562 3.738281-18.492187 11.472656-22.898437 21.429688h-44.863282c-2.417968-6.773438-7.75-12.105469-14.527343-14.527344v-89.472656h72c55.878906-.019532 101.742187-44.210938 103.839843-100.046876 2.097657-55.839843-40.320312-103.347656-96.039062-107.558593-22.355469-35.378907-63.757812-53.886719-105.03125-46.949219-41.269531 6.9375-74.347656 37.964844-83.90625 78.707031-47.503906 2.796875-84.179688 42.851563-82.792969 90.417969 1.390625 47.566406 40.34375 85.414062 87.929688 85.429688h88v89.472656c-6.773438 2.421875-12.109375 7.753906-14.527344 14.527344h-108.863281c-4.414063-9.960938-12.691406-17.699219-22.929688-21.429688 14.457032-16.003906 13.628906-40.585938-1.875-55.574219-15.507812-14.992187-40.101562-14.992187-55.605468 0-15.507813 14.988281-16.335938 39.570313-1.878907 55.574219-15.769531 5.703125-26.285156 20.660156-26.3203122 37.429688v64c0 4.417968 3.5820312 8 8.0000002 8h45.480469c10.257812 21.6875 33.199218 34.425781 57.03125 31.660156 23.832031-2.765625 43.246093-20.417969 48.265624-43.878906 5.015626-23.460938-5.480468-47.507813-26.097656-59.78125h84.800782c3.34375 9.582031 12.378906 15.996093 22.523437 15.996093s19.183594-6.414062 22.523437-15.996093h41.472657v64c0 4.417968 3.582031 8 8 8h160c4.417969 0 8-3.582032 8-8v-64c-.050781-16.761719-10.5625-31.710938-26.320313-37.429688zm-381.679687-170.570312c.058593-39.804688 32.363281-72.035157 72.167969-72 .121093 0 .976562.058593 1.128906.058593 3.980468.140625 7.429687-2.738281 8-6.679687 6.113281-36.636719 34.601562-65.472656 71.164062-72.03125 36.558594-6.554688 73.292969 10.585937 91.753906 42.8125 1.382813 2.394531 3.902344 3.910156 6.664063 4 47.808594 1.808594 85.398437 41.496094 84.617187 89.332031-.785156 47.832031-39.65625 86.265625-87.496093 86.507813h-176c-39.746094-.042969-71.957031-32.253907-72-72zm-16 120c13.253906 0 24 10.746093 24 24 0 13.257812-10.746094 24-24 24-13.253907 0-24-10.742188-24-24 0-13.253907 10.746093-24 24-24zm-40 144v-56c0-13.253907 10.746093-24 24-24h32c10.445312.035156 19.664062 6.832031 22.785156 16.800781-30.160156 4.769531-50.789063 33.023437-46.144531 63.199219zm128-8c0 22.09375-17.910157 40-40 40-22.089844 0-40-17.90625-40-40 0-22.089844 17.910156-40 40-40 22.082031.027343 39.972656 17.921874 40 40zm304-112c0 13.257812-10.746094 24-24 24-.0625 0-.121094 0-.183594 0 10.917969-14.117188 10.917969-33.832032 0-47.949219h.183594c13.238281 0 23.972656 10.714843 24 23.949219zm-32 0c0 13.257812-10.746094 24-24 24-13.253907 0-24-10.742188-24-24 0-13.253907 10.746093-24 24-24 13.253906 0 24 10.746093 24 24zm-56-24h.183593c-10.914062 14.121093-10.914062 33.832031 0 47.953124-.0625 0-.121093 0-.183593 0-13.253907 0-24-10.746093-24-24 0-13.253906 10.746093-24 24-24zm-40 88c0-13.253907 10.746093-24 24-24h.207031c-5.292969 6.886718-8.175781 15.316406-8.207031 24v56h-16zm32 56v-56c0-13.253907 10.746093-24 24-24h32c13.253906 0 24 10.746093 24 24v56zm112 0h-16v-56c-.03125-8.683594-2.914063-17.113282-8.207031-24h.207031c13.253906 0 24 10.746093 24 24zm0 0" fill="url(#b)"/><path d="m112.011719 399.992188h-16v16h-16v16h16v16h16v-16h16v-16h-16zm0 0" fill="url(#c)"/></svg>