<?xml version="1.0" encoding="UTF-8"?>
<svg width="948px" height="717px" viewBox="0 0 948 717" version="1.1" xmlns="http://www.w3.org/2000/svg" xmlns:xlink="http://www.w3.org/1999/xlink">
    <!-- Generator: Sketch 48.2 (47327) - http://www.bohemiancoding.com/sketch -->
    <title>emergency-exit</title>
    <desc>Created with Sketch.</desc>
    <defs></defs>
    <g id="Page-1" stroke="none" stroke-width="1" fill="none" fill-rule="evenodd">
        <g id="emergency-exit" fill="#D31F1F" fill-rule="nonzero">
            <path d="M927.204,0.602 L506.204,0.602 C495.204,0.602 486.204,9.602 486.204,20.602 L486.204,694.602 C486.204,705.602 495.204,714.602 506.204,714.602 L927.204,714.602 C938.204,714.602 947.204,705.602 947.204,694.602 L947.204,20.602 C947.204,9.602 938.204,0.602 927.204,0.602 Z M584.704,395.502 C564.004,395.502 547.204,378.701 547.204,358.002 C547.204,337.302 564.004,320.502 584.704,320.502 C605.404,320.502 622.204,337.302 622.204,358.002 C622.204,378.702 605.404,395.502 584.704,395.502 Z" id="Shape"></path>
            <path d="M6.504,623.902 C8.404,633.402 16.804,639.902 26.104,639.902 C27.404,639.902 28.804,639.802 30.104,639.503 L157.004,613.402 C165.804,611.602 172.304,604.102 172.904,595.202 L178.904,508.803 L243.704,580.702 L226.604,688.702 C224.904,699.602 232.304,709.902 243.204,711.602 L273.304,716.402 C274.404,716.602 275.404,716.602 276.404,716.602 C286.104,716.602 294.604,709.602 296.104,699.702 L316.904,567.902 C317.803,561.902 316.004,555.902 312.004,551.402 L235.204,465.902 L282.404,398.602 L285.604,439.802 C286.003,445.302 289.003,450.201 293.604,453.201 L378.503,508.101 C381.903,510.301 385.604,511.301 389.303,511.301 C395.904,511.301 402.303,508.101 406.104,502.2 L422.704,476.6 C428.704,467.3 426.004,454.9 416.804,448.9 L353.804,408.2 L346.704,317.001 C346.204,311.2 343.304,305.801 338.504,302.4 L265.304,249.2 C262.504,247.2 259.204,245.9 255.704,245.5 L113.304,229.9 C112.604,229.8 111.804,229.8 111.104,229.8 C102.204,229.8 94.304,235.7 91.904,244.4 L64.204,343.1 C61.204,353.7 67.404,364.8 78.104,367.8 L107.404,376 C109.204,376.5 111.004,376.699 112.804,376.699 C121.504,376.699 129.604,370.899 132.004,362.099 L148.104,304.599 L212.004,311.599 L115.604,440.699 C113.304,443.8 111.904,447.5 111.704,451.399 L105.304,552 L16.004,570.399 C5.204,572.699 -1.796,583.199 0.404,594 L6.504,623.902 Z" id="Shape"></path>
            <circle id="Oval" cx="368.604" cy="181.002" r="81.4"></circle>
        </g>
    </g>
</svg>