<?xml version="1.0" encoding="UTF-8"?>
<svg width="102px" height="60px" viewBox="0 0 102 60" version="1.1" xmlns="http://www.w3.org/2000/svg" xmlns:xlink="http://www.w3.org/1999/xlink">
    <!-- Generator: Sketch 51.2 (57519) - http://www.bohemiancoding.com/sketch -->
    <title>Group 2</title>
    <desc>Created with Sketch.</desc>
    <defs>
        <linearGradient x1="50%" y1="-55.4402493%" x2="50%" y2="58.9158994%" id="linearGradient-1">
            <stop stop-color="#FFCD6B" offset="0%"></stop>
            <stop stop-color="#08CC23" offset="100%"></stop>
        </linearGradient>
        <linearGradient x1="50%" y1="-41.263968%" x2="50%" y2="58.9158994%" id="linearGradient-2">
            <stop stop-color="#91E1FF" offset="0%"></stop>
            <stop stop-color="#0097F8" offset="100%"></stop>
        </linearGradient>
    </defs>
    <g id="Page-1" stroke="none" stroke-width="1" fill="none" fill-rule="evenodd">
        <g id="SPLASH" transform="translate(-794.000000, -64.000000)">
            <g id="Group-2" transform="translate(849.000000, 101.500000) scale(-1, 1) rotate(180.000000) translate(-849.000000, -101.500000) translate(796.000000, 65.000000)">
                <path d="M28.935923,33.749335 L44.2434492,60.390393 C46.4446355,64.2213145 45.1234741,69.111304 41.2925526,71.3124903 C40.0798287,72.009302 38.7056108,72.3759933 37.3069523,72.3759933 L6.69189989,72.3759933 C2.27362189,72.3759933 -1.30810011,68.7942713 -1.30810011,64.3759933 C-1.30810011,62.9773348 -0.941408823,61.6031169 -0.244597074,60.390393 L15.0629291,33.749335 C17.2641154,29.9184135 22.1541049,28.5972521 25.9850264,30.7984384 C27.2124093,31.503673 28.2306884,32.5219521 28.935923,33.749335 Z" id="Polygon" fill="url(#linearGradient-1)"></path>
                <path d="M78.2641582,8.61049751 L100.385472,46.6702734 C103.160762,51.445167 101.539764,57.5658003 96.7648699,60.3410905 C95.238723,61.228126 93.5049697,61.6953808 91.7397625,61.6953808 L47.4971344,61.6953808 C41.9742869,61.6953808 37.4971344,57.2182283 37.4971344,51.6953808 C37.4971344,49.9301736 37.9643892,48.1964203 38.8514247,46.6702734 L60.9727388,8.61049751 C63.7480289,3.8356039 69.8686622,2.21460501 74.6435558,4.98989516 C76.1441841,5.86209864 77.3919547,7.10986927 78.2641582,8.61049751 Z" id="Polygon-Copy" fill="url(#linearGradient-2)" transform="translate(69.619845, 36.129122) rotate(60.000000) translate(-69.619845, -36.129122) "></path>
            </g>
        </g>
    </g>
</svg>