<?xml version="1.0" encoding="UTF-8"?>
<svg width="162px" height="162px" viewBox="0 0 162 162" version="1.1" xmlns="http://www.w3.org/2000/svg" xmlns:xlink="http://www.w3.org/1999/xlink">
    <!-- Generator: Sketch 51.2 (57519) - http://www.bohemiancoding.com/sketch -->
    <title>play-button</title>
    <desc>Created with Sketch.</desc>
    <defs></defs>
    <g id="Page-1" stroke="none" stroke-width="1" fill="none" fill-rule="evenodd">
        <g id="SPLASH" transform="translate(-279.000000, -299.000000)" fill="#FFFFFF" fill-rule="nonzero">
            <g id="play-button" transform="translate(279.000000, 299.000000)">
                <path d="M151.133737,40.506215 C128.770219,1.77090122 79.2378827,-11.5015984 40.5061214,10.8663109 C1.77126517,33.2269987 -11.5015935,82.7578566 10.8660516,121.491623 C33.2264753,160.226937 82.7572638,173.5015 121.489541,151.135654 C160.224913,128.767228 173.503961,79.2389497 151.133737,40.506215 Z M113.39285,137.103871 C82.409607,154.998611 42.7813654,144.379992 24.8919948,113.390194 C6.99849778,82.4065849 17.6206017,42.778391 48.604876,24.8924198 C79.5901819,6.9987114 119.21636,17.6162984 137.106762,48.6050653 C154.99768,79.5933163 144.378671,119.213257 113.39285,137.103871 Z M110.15407,77.7080034 L67.7471524,52.975071 C63.8826935,50.7188853 60.7656453,52.5226991 60.7873094,56.9927734 L61.004466,106.085186 C61.0240668,110.554229 64.1792851,112.373517 68.0550918,110.134869 L110.137564,85.8383186 C114.009244,83.6037972 114.017497,79.9641891 110.15407,77.7080034 Z" id="Shape"></path>
            </g>
        </g>
    </g>
</svg>