<?xml version="1.0" encoding="iso-8859-1"?>
<!-- Generator: Adobe Illustrator 19.0.0, SVG Export Plug-In . SVG Version: 6.00 Build 0)  -->
<svg xmlns="http://www.w3.org/2000/svg" xmlns:xlink="http://www.w3.org/1999/xlink" version="1.1" id="Capa_1" x="0px" y="0px" viewBox="0 0 52 52" style="enable-background:new 0 0 52 52;" xml:space="preserve" width="512px" height="512px">
<g>
	<path d="M46.095,20.967h-3.289c-1.229-1.38-5.85-6.329-10.225-7.915c-2.723-0.986-4.956-1.451-6.75-1.823   c-1.407-0.292-2.622-0.545-3.655-0.961c-1.3-0.523-2.548-0.271-3.428,0.691c-0.951,1.039-1.309,2.791-0.781,3.826   c0.45,0.881,1.916,2.048,3.458,2.876L3.191,18.166c-0.091,0.003-0.182,0.018-0.269,0.045C1.837,18.548,0,19.64,0,21.597   c0,2.276,2.014,3.518,3.049,3.518c0.261,0,5.642,0.032,10.104,0.059c-0.376,0.573-0.672,1.342-0.672,2.341   c0,1.849,1.278,2.803,2.364,3.109c-0.371,0.54-0.633,1.265-0.633,2.211c0,2.148,1.623,3.537,4.136,3.537   c0.118,0,0.267,0.008,0.438,0.022c-0.549,0.462-0.927,1.073-0.927,1.879c0,2.229,1.534,3.727,3.818,3.727H35.34   c0.078,0,0.156-0.009,0.232-0.027c0.181-0.043,4.288-1.036,6.568-2.699h3.951c3.259,0,5.91-2.653,5.91-5.915v-6.477   C52,23.62,49.351,20.967,46.095,20.967z M50,33.358c0,2.159-1.754,3.915-3.91,3.915H41.8c-0.23,0-0.454,0.08-0.633,0.226   c-1.676,1.37-5.275,2.33-5.95,2.501H21.676c-0.829,0-1.818-0.3-1.818-1.727c0-0.534,1.693-1.136,3.094-1.278   c0.495-0.051,0.877-0.456,0.898-0.953c0.021-0.497-0.326-0.934-0.815-1.025c-0.353-0.065-3.479-0.645-4.69-0.645   c-0.975,0-2.136-0.267-2.136-1.537c0-1.066,0.568-1.422,0.82-1.526l2.597,0.063c0.008,0,0.016,0,0.024,0   c0.516,0,0.95-0.395,0.996-0.911c0.047-0.525-0.322-0.996-0.843-1.077l-4.127-0.637c-0.36-0.033-1.197-0.222-1.197-1.231   c0-1.138,0.681-1.689,0.959-1.867l3.787-0.444c0.525-0.062,0.912-0.521,0.882-1.049c-0.029-0.527-0.464-0.941-0.993-0.944   c0,0-15.604-0.082-15.995-0.09C3.109,23.117,2,22.754,2,21.597c0-0.809,1.063-1.298,1.408-1.436l24.315-0.674   c0.378-0.011,0.719-0.234,0.879-0.578c0.16-0.344,0.112-0.748-0.124-1.044c-0.521-0.655-1.384-0.771-2.476-0.917   c-0.572-0.077-1.22-0.164-1.904-0.337c-1.68-0.424-4.004-2.061-4.345-2.728c-0.091-0.227,0.013-1.117,0.512-1.615   c0.204-0.204,0.521-0.402,1.167-0.144c1.199,0.482,2.495,0.752,3.995,1.063c1.822,0.379,3.887,0.808,6.475,1.746   c4.495,1.628,9.64,7.622,9.691,7.683c0.19,0.223,0.468,0.352,0.761,0.352h3.742c2.153,0,3.905,1.756,3.905,3.914   C50,26.881,50,33.358,50,33.358z" fill="#4f74c4"/>
</g>
<g>
</g>
<g>
</g>
<g>
</g>
<g>
</g>
<g>
</g>
<g>
</g>
<g>
</g>
<g>
</g>
<g>
</g>
<g>
</g>
<g>
</g>
<g>
</g>
<g>
</g>
<g>
</g>
<g>
</g>
</svg>
