<?xml version="1.0" encoding="iso-8859-1"?>
<!-- Generator: Adobe Illustrator 18.0.0, SVG Export Plug-In . SVG Version: 6.00 Build 0)  -->
<!DOCTYPE svg PUBLIC "-//W3C//DTD SVG 1.1//EN" "http://www.w3.org/Graphics/SVG/1.1/DTD/svg11.dtd">
<svg version="1.1" id="Capa_1" xmlns="http://www.w3.org/2000/svg" xmlns:xlink="http://www.w3.org/1999/xlink" x="0px" y="0px"
	 viewBox="0 0 486.002 486.002" style="enable-background:new 0 0 486.002 486.002;" xml:space="preserve">
<g>
	<path d="M473.002,292.6H264.487c0,0-7.947-105.151-9.433-140.265c-0.658-15.561-13.022-28.158-28.655-28.158h-21.948
		c4.844-9.487,7.595-20.214,7.595-31.577c0-38.429-31.265-69.694-69.694-69.694c-38.43,0-69.695,31.265-69.695,69.694
		c0,11.362,2.751,22.088,7.595,31.575H58.303c-15.636,0-28.387,12.585-28.655,28.159L20.216,292.6H13c-7.18,0-13,5.82-13,13v144.495
		c0,7.18,5.82,13,13,13h460.002c7.18,0,13-5.82,13-13V305.6C486.002,298.42,480.181,292.6,473.002,292.6z M142.352,48.906
		c24.093,0,43.694,19.601,43.694,43.694s-19.601,43.694-43.694,43.694c-24.094,0-43.695-19.601-43.695-43.694
		S118.258,48.906,142.352,48.906z M55.644,152.835c0.106-1.462,1.193-2.659,2.659-2.659l44.829,0.001
		c5.485,3.748,11.531,6.729,17.983,8.798l7.401,8.451l-15.304,90.996c-0.646,3.843,0.465,7.773,3.029,10.708l16.319,18.683
		c2.469,2.826,6.039,4.448,9.791,4.448c3.752,0,7.322-1.622,9.79-4.447l16.319-18.682c2.564-2.935,3.676-6.865,3.029-10.708
		l-15.261-90.746l8.126-8.705c0.108-0.116,0.2-0.24,0.302-0.359c6.05-2.05,11.734-4.896,16.913-8.435l44.829,0
		c1.466,0,2.66,1.195,2.66,2.663l9.37,139.76H46.274C46.274,292.6,53.101,187.725,55.644,152.835z M460.002,437.095H26V318.6
		h434.002V437.095z"/>
	<path d="M312.351,272.6h132c7.18,0,13-5.82,13-13c0-7.18-5.82-13-13-13h-132c-7.18,0-13,5.82-13,13
		C299.351,266.78,305.171,272.6,312.351,272.6z"/>
	<path d="M312.351,230.6h132c7.18,0,13-5.82,13-13s-5.82-13-13-13h-132c-7.18,0-13,5.82-13,13S305.171,230.6,312.351,230.6z"/>
	<path d="M312.351,188.6h132c7.18,0,13-5.82,13-13s-5.82-13-13-13h-132c-7.18,0-13,5.82-13,13S305.171,188.6,312.351,188.6z"/>
	<path d="M312.351,146.6h132c7.18,0,13-5.82,13-13s-5.82-13-13-13h-132c-7.18,0-13,5.82-13,13S305.171,146.6,312.351,146.6z"/>
</g>
<g>
</g>
<g>
</g>
<g>
</g>
<g>
</g>
<g>
</g>
<g>
</g>
<g>
</g>
<g>
</g>
<g>
</g>
<g>
</g>
<g>
</g>
<g>
</g>
<g>
</g>
<g>
</g>
<g>
</g>
</svg>
