<?xml version="1.0" encoding="iso-8859-1"?>
<!-- Generator: Adobe Illustrator 18.0.0, SVG Export Plug-In . SVG Version: 6.00 Build 0)  -->
<!DOCTYPE svg PUBLIC "-//W3C//DTD SVG 1.1//EN" "http://www.w3.org/Graphics/SVG/1.1/DTD/svg11.dtd">
<svg version="1.1" id="Capa_1" xmlns="http://www.w3.org/2000/svg" xmlns:xlink="http://www.w3.org/1999/xlink" x="0px" y="0px"
	 viewBox="0 0 487.673 487.673" style="enable-background:new 0 0 487.673 487.673;" xml:space="preserve">
<g>
	<path d="M376.248,161.4c35.214,0,63.863-28.649,63.863-63.864c0-35.215-28.649-63.864-63.863-63.864
		c-35.215,0-63.864,28.649-63.864,63.864C312.384,132.75,341.033,161.4,376.248,161.4z M376.248,59.671
		c20.878,0,37.863,16.986,37.863,37.864c0,20.878-16.985,37.864-37.863,37.864s-37.864-16.986-37.864-37.864
		C338.384,76.657,355.37,59.671,376.248,59.671z"/>
	<path d="M349.443,469.88c16.712,0,30.31-13.596,30.31-30.308V350.34h80.867c0.002,0,0.004,0,0.006,0
		c7.225,0,14.017-2.813,19.125-7.922c5.109-5.109,7.923-11.901,7.923-19.126V189.878c-0.004-14.913-12.139-27.045-27.051-27.046
		L321.12,162.83c0.009-0.466,0.035-0.928,0.035-1.395c0-41.722-33.943-75.665-75.665-75.665c-41.723,0-75.666,33.943-75.666,75.665
		c0,4.396,0.398,8.699,1.121,12.892h-60.328c31.094-2.637,55.596-28.771,55.596-60.536c0-21.499-11.231-40.412-28.125-51.218
		c3.385-4.4,5.317-9.547,5.317-15.1c0-16.643-17.286-29.68-39.354-29.68c-22.067,0-39.354,13.037-39.354,29.68
		c0,6.064,2.304,11.645,6.289,16.295C55.104,74.743,44.67,93.067,44.67,113.791c0,31.765,24.502,57.899,55.596,60.536H37.203
		c-14.222,0-25.832,11.392-26.186,25.529L0.05,324.684c-0.319,3.631,0.901,7.231,3.364,9.919c2.462,2.688,5.94,4.219,9.586,4.219
		h98.228l0.001,100.748c0,16.711,13.596,30.308,30.309,30.31H349.443C349.444,469.88,349.443,469.88,349.443,469.88z
		 M70.691,114.603l63.059-20.965c4.063,5.69,6.463,12.645,6.463,20.153c0,19.173-15.599,34.772-34.771,34.772
		C86.541,148.563,71.125,133.402,70.691,114.603z M351.146,188.831l11.349,14.217l-6.938,42.471
		c-1.976-0.407-4.021-0.621-6.115-0.621l-58.62-0.001l-0.001-22.916c11.217-8.42,20.01-19.886,25.181-33.15L351.146,188.831z
		 M205.254,244.897l-2.511-21.071c12.171,8.366,26.895,13.275,42.747,13.275c6.68,0,13.157-0.879,19.331-2.512v10.308
		L205.254,244.897z M245.49,111.77c27.386,0,49.665,22.28,49.665,49.665c0,27.386-22.279,49.666-49.665,49.666
		c-27.386,0-49.666-22.28-49.666-49.666C195.824,134.05,218.105,111.77,245.49,111.77z M179.07,244.897l-37.532-0.001
		c-16.71,0-30.308,13.595-30.311,30.308v37.617H27.193l9.816-112.301c0-0.107,0.087-0.194,0.194-0.194h136.476
		c0.108,0,0.196,0.089,0.196,0.199L179.07,244.897z M353.752,439.573c0,2.375-1.933,4.308-4.308,4.308H141.539
		c-2.377-0.001-4.311-1.934-4.311-4.31l-0.002-164.363c0.001-2.377,1.935-4.311,4.311-4.311l74.48,0.001l15.697,19.667
		l-17.083,101.575c-0.646,3.843,0.466,7.773,3.029,10.708l18.038,20.651c2.469,2.826,6.038,4.448,9.791,4.448
		c3.752,0,7.322-1.622,9.79-4.447l18.038-20.649c2.564-2.935,3.677-6.866,3.03-10.708l-17.083-101.577l15.699-19.668l74.476,0.001
		c2.377,0,4.311,1.934,4.312,4.31V439.573z M461.673,323.292c0,0.107,0,0.434-0.308,0.742c-0.309,0.308-0.663,0.326-0.743,0.307
		h-80.87v-8.534c2.356-0.658,4.558-1.971,6.287-3.951l14.64-16.76c2.563-2.935,3.675-6.865,3.029-10.708l-13.683-81.368
		l11.323-14.188l59.272,0c0.58,0,1.052,0.473,1.052,1.05V323.292z"/>
</g>
<g>
</g>
<g>
</g>
<g>
</g>
<g>
</g>
<g>
</g>
<g>
</g>
<g>
</g>
<g>
</g>
<g>
</g>
<g>
</g>
<g>
</g>
<g>
</g>
<g>
</g>
<g>
</g>
<g>
</g>
</svg>
